***************************************************************

[IMG]http://www.hotimg.org/images/67363952943939111394.png[/IMG]

***************************************************************

[IMG]http://www.hotimg.org/images/07325204776003944334.jpg[/IMG]

***************************************************************

FILM TITLE: Jack and Jill (2011)

***************************************************************

Genre:  Comedy  

Rated PG for crude material including suggestive references, language and comic violence

Release:  3 February 2012 (Poland)

Director: Dennis Dugan

Writer: Adam Sandler (screenplay), Steve Koren (screenplay)

Stars:  Adam Sandler, Katie Holmes and Al Pacino

Country: USA 

Language:  English

Plot:
Family guy Jack Sadelstein prepares for the annual event he 
dreads: the Thanksgiving visit of his twin sister, the needy and 
passive-aggressive Jill, who then refuses to leave.

IMDB Rating: 3.0/10 from 8,909 users   Metascore: 23/100 
 
http://www.imdb.com/title/tt0810913/

****************************************************************

[URL=http://www.hotimg.org/viewer.php?file=85754068177040023050.png][IMG]http://www.hotimg.org/images/85754068177040023050_thumb.png[/IMG][/URL]
[URL=http://www.hotimg.org/viewer.php?file=70635318548426953863.png][IMG]http://www.hotimg.org/images/70635318548426953863_thumb.png[/IMG][/URL]
[URL=http://www.hotimg.org/viewer.php?file=37167966275493223199.png][IMG]http://www.hotimg.org/images/37167966275493223199_thumb.png[/IMG][/URL]
[URL=http://www.hotimg.org/viewer.php?file=65151555769087101742.png][IMG]http://www.hotimg.org/images/65151555769087101742_thumb.png[/IMG][/URL]

****************************************************************

General
Complete name                    : Jack and Jill 2011 720p BDRip XviD ac3 (avi) [GREYSHADOW].avi
Format                           : AVI
Format/Info                      : Audio Video Interleave
Format profile                   : OpenDML
File size                        : 3.58 GiB
Duration                         : 1h 30mn
Overall bit rate                 : 5644 Kbps
Writing library                  : VirtualDub build 32842/release

Video
ID                               : 0
Format                           : MPEG-4 Visual
Format profile                   : Simple@L5
Format settings, BVOP            : No
Format settings, QPel            : No
Format settings, GMC             : No warppoints
Format settings, Matrix          : Default (H.263)
Codec ID                         : XVID
Codec ID/Hint                    : XviD
Duration                         : 1h 30mn
Bit rate                         : 4995 Kbps
Width                            : 1280 pixels
Height                           : 688 pixels
Display aspect ratio             : 1.860
Frame rate                       : 23.976 fps
Color space                      : YUV
Chroma subsampling               : 4:2:0
Bit depth                        : 8 bits
Scan type                        : Progressive
Compression mode                 : Lossy
Bits/(Pixel*Frame)               : 0.237
Stream size                      : 3.17 GiB (88%)
Writing library                  : XviD 64

Audio
ID                               : 1
Format                           : AC-3
Format/Info                      : Audio Coding 3
Mode extension                   : CM (complete main)
Codec ID                         : 2000
Duration                         : 1h 30mn
Bit rate mode                    : Constant
Bit rate                         : 640 Kbps
Channel(s)                       : 6 channels
Channel positions                : Front: L C R, Side: L R, LFE
Sampling rate                    : 48.0 KHz
Bit depth                        : 16 bits
Compression mode                 : Lossy
Stream size                      : 416 MiB (11%)
Alignment                        : Aligned on interleaves
Interleave, duration             : 42 ms (1.00 video frame)
Interleave, preload duration     : 512 ms

****************************************************************

Video Source: D:\Jack.and.Jill.2011.BluRay.1080p.AVC.DTS-HD.MA5.1-CHDBits (25.2GB)

Thanks: chdbits.org

****************************************************************

I provide a small sample, so please download this to check your 
compatibility first if you are unsure.

****************************************************************